/* XPM */
static char *aafc8e99a5a44bc4eebc41f076703609[] = {
/* columns rows colors chars-per-pixel */
"16 16 69 1 ",
"  c #221F1F",
". c #29241F",
"X c #3D341F",
"o c #252220",
"O c #272421",
"+ c #292520",
"@ c #2C2823",
"# c #302C24",
"$ c #3E3723",
"% c #41331E",
"& c #493E20",
"* c #60461E",
"= c #4C4120",
"- c #4B4325",
"; c #4D4525",
": c #5A4B20",
"> c #5C5228",
", c #564E33",
"< c #595135",
"1 c #6B5926",
"2 c #6B5A26",
"3 c #625429",
"4 c #64592E",
"5 c #6C5F2D",
"6 c #6C5F2E",
"7 c #9A6B1D",
"8 c #816A20",
"9 c #846D21",
"0 c #876F20",
"q c #84752E",
"w c #87782E",
"e c #8A7B2F",
"r c #817645",
"t c #8C7F49",
"y c #B29021",
"u c #B59321",
"i c #B6A235",
"p c #BAA536",
"a c #C4861C",
"s c #C88B1C",
"d c #C98E1F",
"f c #CD971E",
"g c #CD9C1F",
"h c #E79C1B",
"j c #D2A721",
"k c #D7AE22",
"l c #D1A82D",
"z c #E7BB22",
"x c #DDC43B",
"c c #F0C122",
"v c #F7C722",
"b c #F8C822",
"n c #EED33D",
"m c #F6DA3F",
"M c #91844B",
"N c #95884C",
"B c #AE9E56",
"V c #CCB962",
"C c #CDBA62",
"Z c #FEE140",
"A c #FFE240",
"S c #D6C366",
"D c #D7C466",
"F c #DBC868",
"G c #E4D06B",
"H c #E6D16C",
"J c #EBD66E",
"K c #FFE876",
"L c None",
/* pixels */
"LLLLLL -= LLLLLL",
"LLLLL$iAbyXLLLLL",
"LLL+emAAbbc9.LLL",
"LL>xAApq9uvbk:LL",
"L%lAn4BJJB3zbg%L",
"L*hd5GMMMMC1dh*L",
"L*haNK#@ <KNah*L",
"L*h7CKKrOFKC7h*L",
"L*h7CKSOtKKC7h*L",
"L*haNK, @#HNah*L",
"L*hg1VMMMMS5dh*L",
"L%jbz3BJJB4nAl%L",
"LL:kbbu8qpAAx>LL",
"LLL.0cbbAAme+LLL",
"LLLLLXybAi$LLLLL",
"LLLLLL &; LLLLLL"
};
