/* XPM */
static char *ebc0a44eeb914db6b13dfd60aff16a5b[] = {
/* columns rows colors chars-per-pixel */
"32 32 127 2 ",
"   c #221F1F",
".  c #23201F",
"X  c #24201F",
"o  c #24211F",
"O  c #29231F",
"+  c #2A251F",
"@  c #2A261F",
"#  c #2F2A1F",
"$  c #302A1F",
"%  c #39321F",
"&  c #262321",
"*  c #2A2620",
"=  c #2B2720",
"-  c #2A2622",
";  c #2B2722",
":  c #302B21",
">  c #312C21",
",  c #3A3423",
"<  c #393328",
"1  c #3F3A2B",
"2  c #443A1F",
"3  c #533E1E",
"4  c #453E24",
"5  c #644A1E",
"6  c #644B1E",
"7  c #644B1F",
"8  c #4A432F",
"9  c #554720",
"0  c #574E27",
"q  c #4F4831",
"w  c #574F34",
"e  c #595135",
"r  c #5D5536",
"t  c #655420",
"y  c #645625",
"u  c #655725",
"i  c #685620",
"p  c #675C29",
"a  c #6A5E2A",
"s  c #715D20",
"d  c #655C39",
"f  c #665C3A",
"g  c #786320",
"h  c #73672B",
"j  c #7B6E2C",
"k  c #6B613C",
"l  c #6C623C",
"z  c #756B40",
"x  c #776C40",
"c  c #796E41",
"v  c #996A1D",
"b  c #9E6D1C",
"n  c #9E6E1C",
"m  c #836C20",
"M  c #8B7220",
"N  c #87782E",
"B  c #8E7F2F",
"V  c #977C21",
"C  c #8C7F49",
"Z  c #968028",
"A  c #96812A",
"S  c #9B8A31",
"D  c #AA8A21",
"F  c #AE8E21",
"G  c #AE9B34",
"H  c #B39F35",
"J  c #C48A1D",
"K  c #D28F1C",
"L  c #C7941E",
"P  c #C9961E",
"I  c #D4901B",
"U  c #D1901D",
"Y  c #D2901D",
"T  c #D5981D",
"R  c #E59B1B",
"E  c #E79C1B",
"W  c #D5A41F",
"Q  c #C58D20",
"!  c #C29E21",
"~  c #CA9D29",
"^  c #CDA120",
"/  c #CFA821",
"(  c #CCAB2A",
")  c #D0A821",
"_  c #D9AE21",
"`  c #DAB022",
"'  c #DDB322",
"]  c #DFB422",
"[  c #CDB031",
"{  c #C8B138",
"}  c #DAB331",
"|  c #D5BD3A",
" . c #E7BB22",
".. c #F0C122",
"X. c #F0C222",
"o. c #F8C722",
"O. c #F8C822",
"+. c #E0C63B",
"@. c #E3CA3C",
"#. c #E4CA3C",
"$. c #E5CB3C",
"%. c #EED33D",
"&. c #F7DB3F",
"*. c #FEE03F",
"=. c #988A4D",
"-. c #9F9150",
";. c #AB9C55",
":. c #AE9F56",
">. c #B2A258",
",. c #B5A559",
"<. c #B6A659",
"1. c #B7A75A",
"2. c #C3B25E",
"3. c #C7B560",
"4. c #D0BD64",
"5. c #D1BE64",
"6. c #FFE240",
"7. c #DBC868",
"8. c #E2CD6A",
"9. c #EAD56E",
"0. c #F2DC71",
"q. c #F7E173",
"w. c #FAE374",
"e. c #FBE474",
"r. c #FCE575",
"t. c #FFE876",
"y. c None",
/* pixels */
"y.y.y.y.y.y.y.y.y.y.y.y.y.y.y.y.y.y.y.y.y.y.y.y.y.y.y.y.y.y.y.y.",
"y.y.y.y.y.y.y.y.y.y.y.y.y.    .     y.y.y.y.y.y.y.y.y.y.y.y.y.y.",
"y.y.y.y.y.y.y.y.y.y.y.y.  : N Z m $   y.y.y.y.y.y.y.y.y.y.y.y.y.",
"y.y.y.y.y.y.y.y.y.y.. . j %.6.( O. .g X   y.y.y.y.y.y.y.y.y.y.y.",
"y.y.y.y.y.y.y.y.    0 | 6.6.6.( O.O.O.) 9     y.y.y.y.y.y.y.y.y.",
"y.y.y.y.y.y.    , H 6.6.6.6.6.( O.O.O.O.O.F %     y.y.y.y.y.y.y.",
"y.y.y.y.y.  * B &.6.6.6.6.6.6.( O.O.O.O.O.O.X.M +   y.y.y.y.y.y.",
"y.y.y.    a @.6.6.6.6.6.+.S h y s V ` O.O.O.O.O.' i     y.y.y.y.",
"y.y.y.. G 6.6.6.6.6.$.p & < d z f < . t ] O.O.O.O.O.D   y.y.y.y.",
"y.y.  7 ~ *.6.6.6.{ : q 3.t.r.t.t.t.2.q # ! O.O.O.o.L 7   y.y.y.",
"y.y.  v E Y } 6.| = c r.t.t.t.t.t.t.t.e.c + / o.W K E v   y.y.y.",
"y.y.  b E E E Q 4 f t.1.e e e e e e e l e.f 4 J E E E b   y.y.y.",
"y.y.  b E E E b = 9.t.-.&       . . . :.t.9.= b E E E b   y.y.y.",
"y.y.  b E E E 3 x t.t.-.        . . e t.t.t.x 3 E E E b   y.y.y.",
"y.y.  b E E R O ,.t.t.w.0.0.>.  & = 8.t.t.t.,.O R E E b   y.y.y.",
"y.y.  b E E I   4.t.t.t.r.q.1     =.t.t.t.t.4.  I E E b   y.y.y.",
"y.y.  b E E I   4.t.t.t.r.C     8 w.t.t.t.t.5.. I E E n   y.y.y.",
"y.y.  n E E R O ,.t.t.t.7.&     2.0.0.q.t.t.<.O R E R n   y.y.y.",
"y.y.  n E E E 3 x t.t.t.w .         & z t.t.z 3 E E E n   y.y.y.",
"y.y.  n E E E n * 9.r.:.  .   &       z t.9.@ n E E E n   y.y.y.",
"y.y.  b E E E P 4 d w.l e e e e w w w =.t.f 8 J E E R n   y.y.y.",
"y.y.  v E T _ O./ + c w.t.t.t.t.t.t.t.w.x = | 6.} K E v   y.y.y.",
"y.y.  7 ^ O.O.O.O.! # q 2.t.t.t.t.t.3.q : { 6.6.6.*.~ 7   y.y.y.",
"y.y.y.. D O.O.O.O.O.] t . < f z d < & p $.6.6.6.6.6.G . y.y.y.y.",
"y.y.y.    i ' O.o.O.O.O.` V s u h S +.6.6.6.6.6.@.a     y.y.y.y.",
"y.y.y.y.y.  + M X.O.O.O.O.O.O.[ 6.6.6.6.6.6.&.B *   y.y.y.y.y.y.",
"y.y.y.y.y.y.    % F O.O.O.O.O.[ 6.6.6.6.6.H ,     y.y.y.y.y.y.y.",
"y.y.y.y.y.y.y.y.    9 ) O.O.O.[ 6.6.6.| 0     y.y.y.y.y.y.y.y.y.",
"y.y.y.y.y.y.y.y.y.y.  X g  .O.[ 6.%.j X   y.y.y.y.y.y.y.y.y.y.y.",
"y.y.y.y.y.y.y.y.y.y.y.y.  : m Z N : . y.y.y.y.y.y.y.y.y.y.y.y.y.",
"y.y.y.y.y.y.y.y.y.y.y.y.y.        . y.y.y.y.y.y.y.y.y.y.y.y.y.y.",
"y.y.y.y.y.y.y.y.y.y.y.y.y.y.y.y.y.y.y.y.y.y.y.y.y.y.y.y.y.y.y.y."
};
