/* XPM */
static char *_dda74aee0be4bfaf4bf8683d1316f70[] = {
/* columns rows colors chars-per-pixel */
"64 64 234 2 ",
"   c #221F1F",
".  c #23201F",
"X  c #24201F",
"o  c #24211F",
"O  c #29231F",
"+  c #29241F",
"@  c #2A241F",
"#  c #2A251F",
"$  c #2B251F",
"%  c #2A261F",
"&  c #2C271F",
"*  c #2E271F",
"=  c #2F2A1F",
"-  c #342E1F",
";  c #352E1F",
":  c #362F1F",
">  c #37301F",
",  c #38301F",
"<  c #39311F",
"1  c #3F321E",
"2  c #242120",
"3  c #252120",
"4  c #252220",
"5  c #272421",
"6  c #292520",
"7  c #282521",
"8  c #2A2620",
"9  c #2B2620",
"0  c #2B2720",
"q  c #2C2821",
"w  c #2C2823",
"e  c #2F2B24",
"r  c #302B21",
"t  c #312C25",
"y  c #322D25",
"u  c #322E25",
"i  c #353022",
"p  c #363122",
"a  c #373122",
"s  c #373227",
"d  c #383222",
"f  c #393322",
"g  c #393422",
"h  c #3E3621",
"j  c #3E3721",
"k  c #393428",
"l  c #3D372A",
"z  c #3E382A",
"x  c #443A1F",
"c  c #453E24",
"v  c #403B2B",
"b  c #413B2B",
"n  c #423C2C",
"m  c #463F2D",
"M  c #57411E",
"N  c #64491E",
"B  c #654A1E",
"V  c #76541D",
"C  c #79561D",
"Z  c #7A571D",
"A  c #7B571D",
"S  c #7B581D",
"D  c #4E4120",
"F  c #4F4320",
"G  c #4F4726",
"H  c #4B442F",
"J  c #4C452F",
"K  c #504320",
"L  c #514420",
"P  c #544620",
"I  c #514826",
"U  c #534A26",
"Y  c #554C27",
"T  c #524A32",
"R  c #585034",
"E  c #595135",
"W  c #5E5537",
"Q  c #695720",
"!  c #6B5920",
"~  c #6D5A20",
"^  c #705D20",
"/  c #715D20",
"(  c #605737",
")  c #625938",
"_  c #6C602A",
"`  c #6D622A",
"'  c #6F632B",
"]  c #73662B",
"[  c #73672B",
"{  c #6D643D",
"}  c #6E643D",
"|  c #7B7042",
" . c #7C7142",
".. c #835D1D",
"X. c #845D1D",
"o. c #9E6D1C",
"O. c #806920",
"+. c #826B20",
"@. c #836B20",
"#. c #856D20",
"$. c #897120",
"%. c #8C7320",
"&. c #83752D",
"*. c #85762E",
"=. c #86772E",
"-. c #88792E",
";. c #8D7D2F",
":. c #8F7F2F",
">. c #847846",
",. c #857946",
"<. c #897D48",
"1. c #8B7E48",
"2. c #A88921",
"3. c #AA8A21",
"4. c #AB8B21",
"5. c #AC8C21",
"6. c #B29121",
"7. c #B99621",
"8. c #AD9934",
"9. c #AE9B34",
"0. c #AF9C34",
"q. c #B19D34",
"w. c #B6A235",
"e. c #B7A335",
"r. c #BDA836",
"t. c #BEA936",
"y. c #C7871C",
"u. c #C7881C",
"i. c #C38C1D",
"p. c #C88B1C",
"a. c #C88E1F",
"s. c #C98E1F",
"d. c #C7941E",
"f. c #CC971E",
"g. c #CD971E",
"h. c #D4901B",
"j. c #D2901C",
"k. c #D2901D",
"l. c #D3911D",
"z. c #DD961B",
"x. c #D4981D",
"c. c #DE9B1C",
"v. c #E59B1B",
"b. c #E79C1B",
"n. c #E69D1B",
"m. c #D3A11F",
"M. c #C59124",
"N. c #C89920",
"B. c #CA9E29",
"V. c #C6A121",
"C. c #C7A221",
"Z. c #C8A221",
"A. c #C9A321",
"S. c #CDA120",
"D. c #CAAA2A",
"F. c #CCAB2A",
"G. c #D5A820",
"H. c #D7AC21",
"J. c #D6AD22",
"K. c #D8AD21",
"L. c #DDB322",
"P. c #DEB322",
"I. c #CCAF30",
"U. c #D7AF30",
"Y. c #CDB031",
"T. c #CCB538",
"R. c #CDB638",
"E. c #CEB639",
"W. c #CFB839",
"Q. c #D7B030",
"!. c #DAB935",
"~. c #E3B221",
"^. c #E0B522",
"/. c #E1B622",
"(. c #E2B722",
"). c #E6B922",
"_. c #DBC33B",
"`. c #DCC33B",
"'. c #EFC122",
"]. c #F0C021",
"[. c #F0C122",
"{. c #F1C322",
"}. c #F2C322",
"|. c #F7C722",
" X c #F8C722",
".X c #F8C822",
"XX c #E8C537",
"oX c #E3CA3C",
"OX c #E4CA3C",
"+X c #E6CC3C",
"@X c #E8CD3D",
"#X c #E8CE3D",
"$X c #F7D73C",
"%X c #F5DA3F",
"&X c #F6DA3F",
"*X c #F8DC3F",
"=X c #FEE03F",
"-X c #92854B",
";X c #998B4E",
":X c #A09150",
">X c #A59653",
",X c #A69753",
"<X c #A89954",
"1X c #AE9E56",
"2X c #AE9F56",
"3X c #AF9F57",
"4X c #BBAB5B",
"5X c #BCAB5C",
"6X c #BFAE5D",
"7X c #C5B35F",
"8X c #C6B45F",
"9X c #C8B661",
"0X c #CBB962",
"qX c #CFBD63",
"wX c #FEE140",
"eX c #FFE240",
"rX c #DDC969",
"tX c #E1CC6A",
"yX c #E2CD6A",
"uX c #E4D06B",
"iX c #EAD56E",
"pX c #EBD66E",
"aX c #ECD76E",
"sX c #F0DB70",
"dX c #F2DC71",
"fX c #F3DD71",
"gX c #F5DF72",
"hX c #F7E173",
"jX c #F8E273",
"kX c #FAE374",
"lX c #FBE474",
"zX c #FCE675",
"xX c #FFE876",
"cX c None",
/* pixels */
"cXcXcXcXcXcXcXcXcXcXcXcXcXcXcXcXcXcXcXcXcXcXcXcXcXcXcXcXcXcXcXcXcXcXcXcXcXcXcXcXcXcXcXcXcXcXcXcXcXcXcXcXcXcXcXcXcXcXcXcXcXcXcXcX",
"cXcXcXcXcXcXcXcXcXcXcXcXcXcXcXcXcXcXcXcXcXcXcXcXcXcXcXcX              cXcXcXcXcXcXcXcXcXcXcXcXcXcXcXcXcXcXcXcXcXcXcXcXcXcXcXcXcX",
"cXcXcXcXcXcXcXcXcXcXcXcXcXcXcXcXcXcXcXcXcXcXcXcXcXcX              .       cXcXcXcXcXcXcXcXcXcXcXcXcXcXcXcXcXcXcXcXcXcXcXcXcXcXcX",
"cXcXcXcXcXcXcXcXcXcXcXcXcXcXcXcXcXcXcXcXcXcXcXcX          . 8 h @ .           cXcXcXcXcXcXcXcXcXcXcXcXcXcXcXcXcXcXcXcXcXcXcXcXcX",
"cXcXcXcXcXcXcXcXcXcXcXcXcXcXcXcXcXcXcXcXcXcXcX        8 *._.eXF..XJ.+.@         cXcXcXcXcXcXcXcXcXcXcXcXcXcXcXcXcXcXcXcXcXcXcXcX",
"cXcXcXcXcXcXcXcXcXcXcXcXcXcXcXcXcXcXcXcXcX        . _ oXeXeXeXF..X.X.XL.Q           cXcXcXcXcXcXcXcXcXcXcXcXcXcXcXcXcXcXcXcXcXcX",
"cXcXcXcXcXcXcXcXcXcXcXcXcXcXcXcXcXcXcX      .   G T.eXeXeXeXeXF..X.X.X.X.XV.D           cXcXcXcXcXcXcXcXcXcXcXcXcXcXcXcXcXcXcXcX",
"cXcXcXcXcXcXcXcXcXcXcXcXcXcXcXcXcX          p 8.eXeXeXeXeXeXeXF..X.X.X.X.X.X|.2.<           cXcXcXcXcXcXcXcXcXcXcXcXcXcXcXcXcXcX",
"cXcXcXcXcXcXcXcXcXcXcXcXcXcXcXcX        @ :.&XeXeXeXeXeXeXeXeXF..X.X.X.X.X.X.X.X'.$.@ .       cXcXcXcXcXcXcXcXcXcXcXcXcXcXcXcXcX",
"cXcXcXcXcXcXcXcXcXcXcXcXcXcX          ' oXeXeXeXeXeXeXeXeXeXeXF..X.X.X.X.X.X.X.X.X.XL.!           cXcXcXcXcXcXcXcXcXcXcXcXcXcXcX",
"cXcXcXcXcXcXcXcXcXcXcXcX          I E.eXeXeXeXeXeXeXeXeXeXeXeXF..X.X.X.X.X.X.X.X.X.X.X.XV.P   .       cXcXcXcXcXcXcXcXcXcXcXcXcX",
"cXcXcXcXcXcXcXcXcXcX          g 9.eXeXeXeXeXeXeXeXeXeXeXeXeXeXF..X.X.X.X.X.X.X.X.X.X.X.X.X.X2.<           cXcXcXcXcXcXcXcXcXcXcX",
"cXcXcXcXcXcXcXcXcX        8 :.&XeXeXeXeXeXeXeXeXeXeXeXeXeXeXeXF..X.X.X.X.X.X.X.X.X.X.X.X.X.X.X{.%.@ .       cXcXcXcXcXcXcXcXcXcX",
"cXcXcXcXcXcXcX        . ' +XeXeXeXeXeXeXeXeXeXeXeXeXeXeXeXeXeXD..X.X.X.X.X.X.X.X.X.X.X.X.X.X.X.X.X^.~ .         cXcXcXcXcXcXcXcX",
"cXcXcXcXcXcX        U W.eXeXeXeXeXeXeXeXeXeXeXeXeX*Xe.*.Y p 8   @ > P +.6.}..X.X.X.X.X.X.X.X.X.X.X.X.XA.P         cXcXcXcXcXcXcX",
"cXcXcXcXcX      p q.eXeXeXeXeXeXeXeXeXeXeXeXeX_.[ q                       @ ^ J..X.X.X.X.X.X.X.X.X.X.X.X.X5.;       cXcXcXcXcXcX",
"cXcXcXcX      c @XeXeXeXeXeXeXeXeXeXeXeXeX@X' o         4 l T E T l 4         . ~ (..X X.X.X.X.X.X.X.X.X.X.X^.x .     cXcXcXcXcX",
"cXcXcXcX    8 `.eXeXeXeXeXeXeXeXeXeXeXeX0.r   .   s >.7XhXxXxXxXxXxXhX7X>.s     o = 2.|..X.X.X.X.X.X.X.X.X.X.XJ.@     cXcXcXcXcX",
"cXcXcX      A s.XXeXeXeXeXeXeXeXeXeXeX&.      k <XlXxXxXxXxXxXxXxXxXxXxXxXlX<Xk       +..X.X.X.X.X.X.X.X|..X~.p.S       cXcXcXcX",
"cXcXcX      y.b.v.M.$XeXeXeXeXeXeXeX[        .gXxXxXxXxXxXxXxXxXxXxXxXxXxXxXxXgX .      ^ .X.X.X.X.X.X.X'.i.b.b.y.      cXcXcXcX",
"cXcXcX    @ b.b.b.b.z.B.=XeXeXeXeX-.    5 3XxXxXxXxXxXxXxXxXxXxXxXxXxXxXxXxXxXxXxX3X5     #. X.X.X.X.Xd.z.b.b.b.b.@     cXcXcXcX",
"cXcXcX    * b.b.b.b.b.b.l.U.eXeXt.    4 5XxXxXxXxXxXxXxXxXxXxXxXxXxXxXxXxXxXxXxXxXxX5X4     7..X.Xm.l.b.b.b.b.b.b.*     cXcXcXcX",
"cXcXcX    * b.b.b.b.b.b.b.b.s.!.p     >XxXxXxX) z z z z z z z z z z z z z z z l b yXxX>X    ; G.u.b.b.b.b.b.b.b.b.*     cXcXcXcX",
"cXcXcX    * b.b.b.b.b.b.b.b.b.C     { xXxXxXxXJ                                 1.xXxXxX{     C b.b.b.b.b.b.b.b.b.*     cXcXcXcX",
"cXcXcX    * b.b.b.b.b.b.b.b.h.O   e pXxXxXxXxXJ                               n jXxXxXxXpXe   O h.b.b.b.b.b.b.b.b.*     cXcXcXcX",
"cXcXcX    * b.b.b.b.b.b.b.b.X.    1.xXxXxXxXxXJ                             . 9XxXxXxXxXxX1.    ..b.b.b.b.b.b.b.b.*     cXcXcXcX",
"cXcXcX    * b.b.b.b.b.b.b.b.1   4 pXxXxXxXxXxXJ                              .xXxXxXxXxXxXpX4   1 b.b.b.b.b.b.b.b.*     cXcXcXcX",
"cXcXcX    * b.b.b.b.b.b.b.u.    W xXxXxXxXxXxXJ                           k dXxXxXxXxXxXxXxXW     u.b.b.b.b.b.b.b.*     cXcXcXcX",
"cXcXcX    * b.b.b.b.b.b.b.o.    ;XxXxXxXxXxXxXgXdXdXdXdXdXuXy             4XxXxXxXxXxXxXxXxX;X    o.b.b.b.b.b.b.b.*     cXcXcXcX",
"cXcXcX    * b.b.b.b.b.b.b.V     7XxXxXxXxXxXxXxXxXxXxXxXxX|             { xXxXxXxXxXxXxXxXxX7X    V b.b.b.b.b.b.b.*     cXcXcXcX",
"cXcXcX    * b.b.b.b.b.b.b.B     yXxXxXxXxXxXxXxXxXxXxXxX0X            y aXxXxXxXxXxXxXxXxXxXyX    B b.b.b.b.b.b.b.*     cXcXcXcX",
"cXcXcX    * b.b.b.b.b.b.b.M     dXxXxXxXxXxXxXxXxXxXxXkXm             3XxXxXxXxXxXxXxXxXxXxXdX    M b.b.b.b.b.b.b.*     cXcXcXcX",
"cXcXcX    * b.b.b.b.b.b.b.M     dXxXxXxXxXxXxXxXxXxXxX-X            ( xXxXxXxXxXxXxXxXxXxXxXdX    M b.b.b.b.b.b.b.*     cXcXcXcX",
"cXcXcX    * b.b.b.b.b.b.b.B     yXxXxXxXxXxXxXxXxXxXrX5           w yXxXxXxXxXxXxXxXxXxXxXxXyX    N b.b.b.b.b.b.b.*     cXcXcXcX",
"cXcXcX    * b.b.b.b.b.b.b.V     7XxXxXxXxXxXxXxXxXxXR             :XxXxXxXxXxXxXxXxXxXxXxXxX7X    V b.b.b.b.b.b.b.*     cXcXcXcX",
"cXcXcX    * b.b.b.b.b.b.b.o.    ;XxXxXxXxXxXxXxXxX<X            J sXdXdXdXdXdXdXlXxXxXxXxXxX;X    o.b.b.b.b.b.b.b.*     cXcXcXcX",
"cXcXcX    * b.b.b.b.b.b.b.u.    W xXxXxXxXxXxXxXpXy                     .       9XxXxXxXxXxXW     u.b.b.b.b.b.b.b.*     cXcXcXcX",
"cXcXcX    * b.b.b.b.b.b.b.b.1   4 pXxXxXxXxXxXxX{ .                     .       9XxXxXxXxXpX4   1 b.b.b.b.b.b.b.b.*     cXcXcXcX",
"cXcXcX    * b.b.b.b.b.b.b.b.X.    1.xXxXxXxXxX6X                                9XxXxXxXxX1.    ..b.b.b.b.b.b.b.b.*     cXcXcXcX",
"cXcXcX    * b.b.b.b.b.b.b.b.h.O   e pXxXxXxXgXl                                 9XxXxXxXpXe   O l.v.b.b.b.b.b.b.b.*     cXcXcXcX",
"cXcXcX    * b.b.b.b.b.b.b.b.b.C     { xXxXxX>.                          2 .     9XxXxXxX{     C b.b.b.b.b.b.b.b.b.*     cXcXcXcX",
"cXcXcX    * b.b.b.b.b.b.b.b.g.K.;     >XxXyXb z z z z z z z z z z z z z z z z z qXxXxX>X    p !.s.b.b.b.b.b.b.b.b.*     cXcXcXcX",
"cXcXcX    * b.b.b.b.b.b.x.J. X.X7.    4 4XxXxXxXxXxXxXxXxXxXxXxXxXxXxXxXxXxXxXxXxXxX4X4     r.eXeXQ.l.v.b.b.b.b.b.*     cXcXcXcX",
"cXcXcX    @ b.b.b.b.c.S..X.X.X.X|.#.    5 3XxXxXxXxXxXxXxXxXxXxXxXxXxXxXxXxXxXxXxX3X4 2   -.eXeXeXeX=XB.z.b.b.b.b.@     cXcXcXcX",
"cXcXcX      y.b.b.N.|..X.X.X.X.X.X.X^        .gXxXxXxXxXxXxXxXxXxXxXxXxXxXxXxXdX .2     [ eXeXeXeXeXeXeX$XM.v.b.y.      cXcXcXcX",
"cXcXcX      C g.(..X.X.X.X.X.X.X.X.X X+.      k <XlXxXxXxXxXxXxXxXxXxXxXxXlX<Xk     2 &.eXeXeXeXeXeXeXeXeXeXXXs.S       cXcXcXcX",
"cXcXcXcX    @ J..X.X.X.X.X.X.X.X.X.X.X.X5.=       s >.7XhXxXxXxXxXxXhX7X>.s   .   r 0.eXeXeXeXeXeXeXeXeXeXeXeX`.8     cXcXcXcXcX",
"cXcXcXcX  . . x ^..X.X.X.X.X.X.X.X.X.X.X.X^.~ .         2 z T E T z 2         . ' +XeXeXeXeXeXeXeXeXeXeXeXeX@Xc       cXcXcXcXcX",
"cXcXcXcXcX      ; 5..X.X.X.X.X.X.X.X.X.X.X.X.XJ.^ & . .         . 2       w [ _.eXeXeXeXeXeXeXeXeXeXeXeXeXq.p       cXcXcXcXcXcX",
"cXcXcXcXcXcX        D A..X.X.X.X.X.X.X.X.X.X.X.X.X}.6.+.P > @   5 p U -.e.*XeXeXeXeXeXeXeXeXeXeXeXeXeXE.U         cXcXcXcXcXcXcX",
"cXcXcXcXcXcXcX        . ~ ^..X.X.X.X.X.X.X.X.X.X.X.X.X.X.X.X.XI.=XeXeXeX=X=XeXeXeXeXeXeXeXeXeXeXeX+X' .         cXcXcXcXcXcXcXcX",
"cXcXcXcXcXcXcXcXcX        @ %.{..X.X.X.X.X.X.X.X.X.X.X.X.X.X.XY.eXeXeXeXeXeXeXeXeXeXeXeXeXeXeX&X:.8         cXcXcXcXcXcXcXcXcXcX",
"cXcXcXcXcXcXcXcXcXcX          < 2..X.X.X.X.X.X.X.X.X.X.X.X.X.XY.eXeXeXeXeXeXeXeXeXeXeXeX=XeX9.g           cXcXcXcXcXcXcXcXcXcXcX",
"cXcXcXcXcXcXcXcXcXcXcXcX        . D V..X.X.X.X.X.X.X.X.X.X.X.XY.eXeXeXeXeXeXeXeXeXeXeXeXE.U           cXcXcXcXcXcXcXcXcXcXcXcXcX",
"cXcXcXcXcXcXcXcXcXcXcXcXcXcX        . ! L..X.X.X.X.X.X.X.X.X.XY.eXeXeXeXeXeXeXeXeXeXoX' .         cXcXcXcXcXcXcXcXcXcXcXcXcXcXcX",
"cXcXcXcXcXcXcXcXcXcXcXcXcXcXcXcX      . @ $.'.|..X.X.X.X.X.X.XY.eXeXeXeXeXeXeXeX%X;.@         cXcXcXcXcXcXcXcXcXcXcXcXcXcXcXcXcX",
"cXcXcXcXcXcXcXcXcXcXcXcXcXcXcXcXcX          < 2.|..X.X.X.X.X.XY.eXeXeXeXeXeXeX8.f           cXcXcXcXcXcXcXcXcXcXcXcXcXcXcXcXcXcX",
"cXcXcXcXcXcXcXcXcXcXcXcXcXcXcXcXcXcXcX          D V..X.X.X.X.XY.eXeXeXeXeXT.G           cXcXcXcXcXcXcXcXcXcXcXcXcXcXcXcXcXcXcXcX",
"cXcXcXcXcXcXcXcXcXcXcXcXcXcXcXcXcXcXcXcXcX        . Q L..X.X.XY.eXeXeXoX_           cXcXcXcXcXcXcXcXcXcXcXcXcXcXcXcXcXcXcXcXcXcX",
"cXcXcXcXcXcXcXcXcXcXcXcXcXcXcXcXcXcXcXcXcXcXcX        @ +.J..XY.eX_.-.8         cXcXcXcXcXcXcXcXcXcXcXcXcXcXcXcXcXcXcXcXcXcXcXcX",
"cXcXcXcXcXcXcXcXcXcXcXcXcXcXcXcXcXcXcXcXcXcXcXcX            @ h 8             cXcXcXcXcXcXcXcXcXcXcXcXcXcXcXcXcXcXcXcXcXcXcXcXcX",
"cXcXcXcXcXcXcXcXcXcXcXcXcXcXcXcXcXcXcXcXcXcXcXcXcXcX        . . .         cXcXcXcXcXcXcXcXcXcXcXcXcXcXcXcXcXcXcXcXcXcXcXcXcXcXcX",
"cXcXcXcXcXcXcXcXcXcXcXcXcXcXcXcXcXcXcXcXcXcXcXcXcXcXcXcX              cXcXcXcXcXcXcXcXcXcXcXcXcXcXcXcXcXcXcXcXcXcXcXcXcXcXcXcXcX",
"cXcXcXcXcXcXcXcXcXcXcXcXcXcXcXcXcXcXcXcXcXcXcXcXcXcXcXcXcXcXcXcXcXcXcXcXcXcXcXcXcXcXcXcXcXcXcXcXcXcXcXcXcXcXcXcXcXcXcXcXcXcXcXcX"
};
